pedal_clip_forces.mot
version=1
nRows=164
nColumns=4
inDegrees=yes
endheader
time	PedalClip_calcn_r_Fx	PedalClip_calcn_r_Fy	PedalClip_calcn_r_Fz
0	23.0775853155084	-17.3001053376401	-0
0.00102765	23.6258820602259	-17.2918749826411	-0
0.00539252	24.1670269498907	-17.315015339776	-0
0.00975738	24.7009649449887	-17.3693834141092	-0
0.01412224	25.2276299154044	-17.4548203842964	-0
0.01696289	25.7469297553094	-17.5711381627669	-0
0.0206585	26.258773673442	-17.7180833971053	-0
0.02376352	26.7630847156951	-17.895365831653	-0
0.02786465	27.2597915450366	-18.1026800908359	-0
0.02997577	27.7488255204163	-18.3396964654166	-0
0.03281007	28.2301226370571	-18.6060819536505	-0
0.03592081	28.7036250677292	-18.9015207502394	-0
0.03809516	29.1692907396941	-19.2257127675753	-0
0.04141968	29.627092030341	-19.5783781619187	-0
0.04278867	30.0770234946552	-19.9592583907831	-0
0.04612566	30.5191006421302	-20.3681259148579	-0
0.04795813	30.9533685883225	-20.8047985754724	-0
0.05035565	31.3798957870665	-21.2691465181773	-0
0.05240489	31.7987631673692	-21.7611321020219	-0
0.0549615	32.2100613750717	-22.2808444398913	-0
0.05667021	32.6138704753327	-22.8285437402411	-0
0.05876638	33.0102477352044	-23.4047602990321	-0
0.06086254	33.3991853540112	-24.0104219663177	-0
0.06295871	33.7805291907957	-24.6471536507571	-0
0.06474225	34.1537669901694	-25.3176036655992	-0
0.06652579	34.5153561247083	-26.0303694296705	-0
0.06830932	34.8652179403618	-26.767511348225	-0
0.07047111	35.2038147030856	-27.5245242196393	-0
0.07204379	35.5314703295184	-28.2968496408479	-0
0.07361647	35.8484560412258	-29.079267309623	-0
0.07565293	36.1540476267092	-29.8697243888292	-0
0.07768939	36.4470239673443	-30.6658143394411	-0
0.07903699	36.7265044867474	-31.4674248599821	-0
0.0803846	36.9927387682063	-32.2746991749216	-0
0.0823212	37.2459187103756	-33.085668568714	-0
0.08396835	37.4863376231977	-33.8988740634546	-0
0.0856155	37.7136830165226	-34.7130127675374	-0
0.08726265	37.9294165279166	-35.5280153917724	-0
0.08868533	38.135622554901	-36.3436529322258	-0
0.09010801	38.3362670549138	-37.1606766334783	-0
0.09153068	38.5352418951674	-37.9780169771628	-0
0.09295336	38.7359702240347	-38.7931864926136	-0
0.09437604	38.9388198109278	-39.6047609759693	-0
0.09579871	39.1435439205419	-40.4115049712899	-0
0.09722139	39.3488739465685	-41.2129614139568	-0
0.09864407	39.5537596968727	-42.008680471654	-0
0.10006674	39.757251759308	-42.7990198085903	-0
0.10131904	39.9590680958094	-43.5837503054276	-0
0.10257134	40.1590677087322	-44.3618317074246	-0
0.10370769	40.3570790804365	-45.1321898444078	-0
0.10537171	40.5530548966301	-45.8937336149495	-0
0.10643405	40.7472256411924	-46.6456650404217	-0
0.1079584	40.9397274846678	-47.3878108462336	-0
0.10931267	41.1308800825294	-48.120428107573	-0
0.11026985	41.3206468365203	-48.8443115111367	-0
0.11152642	41.5090026942048	-49.5603232907713	-0
0.11265389	41.6958119442622	-50.2695887614542	-0
0.11378136	41.8807720529208	-50.9735570758723	-0
0.1147729	42.0636661954468	-51.6738387664699	-0
0.11576444	42.244418989304	-52.3715872652652	-0
0.11695347	42.4229948648618	-53.0680404220532	-0
0.11800779	42.5993931098116	-53.7642630148996	-0
0.11887016	42.7736386627445	-54.4615710686905	-0
0.12005338	42.9459058426248	-55.1610219810258	-0
0.1212366	43.1164318661759	-55.8636954910067	-0
0.12199045	43.2853048317486	-56.5700956868913	-0
0.12310118	43.4525273564011	-57.2805105743082	-0
0.12421192	43.6181391574322	-57.9947082549839	-0
0.12532266	43.7821471710868	-58.7127025530812	-0
0.12617806	43.944454494454	-59.4340684195009	-0
0.12708592	44.104843466312	-60.1584409468162	-0
0.12833104	44.2629657396604	-60.8850725962411	-0
0.12957616	44.4184773206932	-61.613097959172	-0
0.13082127	44.5710973432185	-62.3412723968415	-0
0.13206639	44.7207290518505	-63.0685148098425	-0
0.13331151	44.8673253992623	-63.7940115227909	-0
0.13455663	45.0108884568781	-64.5170194468807	-0
0.13552547	45.1514757157212	-65.2365276506409	-0
0.13627168	45.2891784272026	-65.9512519396534	-0
0.13729785	45.4241148612263	-66.6602594316107	-0
0.13832401	45.5564788226127	-67.3631743435949	-0
0.13924959	45.686361892278	-68.0596962131946	-0
0.14031078	45.8138897114249	-68.7496556919121	-0
0.14100036	45.9392178978154	-69.4331504211687	-0
0.1419635	46.062665786539	-70.1106724555697	-0
0.14292664	46.1845765709403	-70.7828890029977	-0
0.14384053	46.3054148062059	-71.450792411035	-0
0.14458789	46.4255094379379	-72.1153622715832	-0
0.14556347	46.5451566245979	-72.7776935209351	-0
0.14653905	46.6646082446463	-73.4390409563091	-0
0.14751464	46.7842884431858	-74.1009318245396	-0
0.14817204	46.9044617859282	-74.7646179664878	-0
0.14914749	47.0253912354533	-75.4312194451937	-0
0.15012293	47.1474283046663	-76.1017443992355	-0
0.15075148	47.2707486077132	-76.7767619367325	-0
0.15162759	47.3953429376863	-77.4563702435535	-0
0.15245403	47.5211334127229	-78.1403094378044	-0
0.15328047	47.6479416882487	-78.8279627891676	-0
0.15399429	47.775558414125	-79.518500826257	-0
0.15498496	47.9037415016749	-80.2110297522907	-0
0.15597562	48.032278894469	-80.9047784570535	-0
0.15696629	48.1609595071137	-81.5991402484401	-0
0.15771494	48.2895354926315	-82.293561053114	-0
0.1584636	48.4177341404677	-82.9874620208707	-0
0.15932439	48.5452397336866	-83.6801870191077	-0
0.16017676	48.671641546797	-84.371059435424	-0
0.16089389	48.7965405792266	-85.0595202324493	-0
0.16178045	48.9195603042389	-85.745121311224	-0
0.1624277	49.040450206265	-86.4275959748207	-0
0.16325393	49.1590902522931	-87.1068005601212	-0
0.16392603	49.2755423789948	-87.7828233899479	-0
0.16477082	49.3899922368927	-88.455975998816	-0
0.16542637	49.5027032656637	-89.1266815102281	-0
0.16625351	49.6139038822751	-89.7953332673358	-0
0.16690937	49.7237698097228	-90.4623128797926	-0
0.16773426	49.8325010877704	-91.1282310482219	-0
0.16838471	49.9402645027322	-91.7937631678577	-0
0.16920211	50.0471837236483	-92.4595755595824	-0
0.1698498	50.1534062405205	-93.1264445835114	-0
0.17066268	50.259054745951	-93.7951529832983	-0
0.17130734	50.3642790427159	-94.466404666196	-0
0.17211539	50.4691993973968	-95.1407629307059	-0
0.17275743	50.573975014452	-95.8186927398448	-0
0.17356134	50.6786493313418	-96.500363020688	-0
0.17420109	50.7832464961645	-97.1857830591498	-0
0.17500125	50.8877412112841	-97.8749036479762	-0
0.17563889	50.9921299557578	-98.5677611439804	-0
0.17643563	51.096413132156	-99.264461579206	-0
0.17707146	51.2006670226104	-99.9651682135274	-0
0.17786518	51.3048958652626	-100.669917283156	-0
0.17849936	51.4091440792925	-101.378818286368	-0
0.17929035	51.5134246853656	-102.09198722517	-0
0.17992312	51.6178093287688	-102.809622483707	-0
0.18071172	51.722318493427	-103.531895666534	-0
0.18134325	51.8270136845837	-104.259002900752	-0
0.18212974	51.9319114135356	-104.991094866669	-0
0.18276024	52.0370778375145	-105.728370347756	-0
0.18354491	52.1425317829696	-106.470993903776	-0
0.18417454	52.2483392811058	-107.219171643942	-0
0.18495767	52.3545195783442	-107.973071279475	-0
0.18558661	52.4611408868309	-108.732906099391	-0
0.18636847	52.5682239781583	-109.498852903779	-0
0.18699691	52.6758388392746	-110.271134044928	-0
0.18777777	52.7840075453391	-111.049934345131	-0
0.18840586	52.8928020746142	-111.835485324635	-0
0.18918598	53.0022460369627	-112.627981313302	-0
0.18981391	53.1124135599624	-113.427664291042	-0
0.19059355	53.2233299037068	-114.234738950039	-0
0.19122149	53.3350714155243	-115.049458456869	-0
0.19200091	53.4476652651673	-115.87203907571	-0
0.19262902	53.5611902874701	-116.702746443252	-0
0.1934085	53.6756758683427	-117.541809815855	-0
0.19403696	53.7912035357747	-118.389508557915	-0
0.19481675	53.9078051823982	-119.246086414679	-0
0.19544575	54.0255653021101	-120.111837993605	-0
0.19622613	54.1445186229356	-120.987023258347	-0
0.19685583	54.2647528736124	-121.871953689859	-0
0.19763708	54.3863059659735	-122.766907282816	-0
0.19826768	54.5092691658306	-123.672214124148	-0
0.19905007	54.633683964166	-124.588172202769	-0
0.19968176	54.7596455113989	-125.515131952378	-0
0.2004656	54.8871993989434	-126.453413276815	-0
0.20109858	55.0164450265072	-127.403388851529	-0
0.20188417	55.1474327570269	-128.365403119196	-0
